<svg width="792" height="216" viewBox="0 0 792 216" fill="none" xmlns="http://www.w3.org/2000/svg">
<mask id="mask0_6_6" style="mask-type:luminance" maskUnits="userSpaceOnUse" x="0" y="88" width="130" height="128">
<path d="M129.099 88.7944H0.728516V215.706H129.099V88.7944Z" fill="white"/>
</mask>
<g mask="url(#mask0_6_6)">
<path d="M129.012 97.5282C128.351 101.792 126.704 105.906 123.843 109.13C118.235 115.773 112.001 121.822 105.262 127.313C94.7098 136.253 83.8054 144.779 73.0174 153.431C65.7528 158.966 58.3331 164.295 50.9425 169.656C47.4906 172.82 44.1032 176.837 38.8603 176.235C31.5314 174.282 33.9884 164.874 37.7757 160.638C43.4859 153.382 49.5773 146.429 55.7879 139.596C71.0494 122.725 98.9154 89.2682 122.851 88.8584C127.211 89.6925 129.22 93.2133 129.012 97.5282Z" fill="white"/>
<path d="M118.068 181.887C118.15 185.279 116.746 187.864 114.145 189.906C105.693 198.484 88.3394 162.006 84.2462 155.91C82.9039 153.209 82.7723 149.57 85.1306 147.512C89.7433 143.435 94.4024 139.41 99.0491 135.371C102.106 132.259 106.764 129.007 109.38 134.482C113.364 149.985 116.801 165.88 118.068 181.887Z" fill="white"/>
<path d="M26.9199 95.8859C27.2242 90.5427 34.0641 88.6235 38.4919 89.9933C52.2924 93.8113 66.0521 98.0869 79.3009 103.5C81.9889 105.108 82.48 108.096 80.2982 110.335C74.9275 115.81 69.2648 121.002 64.0171 126.601C62.2264 128.503 61.243 128.798 59.084 127.361C56.6533 125.744 54.2544 124.042 52.0371 122.148C46.068 116.124 27.5011 103.618 26.9199 95.8859Z" fill="white"/>
<path d="M49.0957 206.572C49.1942 205.099 50.2517 203.845 51.5327 202.708C60.4268 195.042 69.0278 187.071 77.3074 178.746C78.5911 177.511 79.9984 176.398 81.4002 175.295C84.7096 172.451 88.3704 176.591 85.1985 179.536C75.7204 188.917 66.1006 198.155 56.6762 207.589C54.6378 210.21 49.1079 211.331 49.0957 206.572Z" fill="white"/>
<path d="M35.9328 123.608C28.6211 133.654 18.8962 142.063 10.7148 151.502C9.12849 153.145 7.80611 155.207 5.72217 156.258C3.10149 157.79 -0.32805 154.656 1.16266 151.965C1.70253 150.877 2.57255 149.915 3.437 149.035C10.9997 141.869 17.881 134.041 25.131 126.567C27.6915 124.372 34.1747 117.141 35.9328 123.608Z" fill="white"/>
<path d="M35.6771 184.46C32.9081 189.069 27.8266 192.517 24.148 196.487C20.0523 200.024 16.718 204.699 11.895 207.256C10.8369 207.743 9.71941 207.652 8.82964 206.768C6.92334 204.881 8.88725 202.333 10.2849 200.835C16.7613 194.752 23.2909 188.725 29.8141 182.691C31.7477 180.313 35.6293 180.519 35.6771 184.46Z" fill="white"/>
<path d="M64.4592 178.689C63.7441 192.196 48.9002 185.214 50.9918 174.854C51.7383 171.847 55.0811 170.449 57.2062 168.47C58.7298 167.284 60.4222 167.76 61.984 168.308C64.0758 169.516 63.7536 176.065 64.4592 178.689Z" fill="white"/>
<path d="M26.2715 150.04C28.693 143.621 35.6647 144.046 40.7599 147.012C47.1604 150.508 39.5498 155.989 36.7656 159.21C36.3675 159.611 35.4794 159.859 34.929 159.723C29.8574 158.738 27.5237 154.865 26.2715 150.04Z" fill="white"/>
<path d="M86.0355 215.636C82.1418 215.827 81.2479 211.987 83.6458 209.722C84.9844 208.487 86.3227 207.251 87.6345 205.987C90.4793 203.247 93.3043 200.485 96.1464 197.742C97.2591 196.557 99.2206 196.021 100.395 197.269C101.671 198.424 101.193 200.386 100.013 201.517C97.0543 204.731 94.0838 207.935 91.1218 211.146C89.8073 212.758 87.819 214.907 86.0355 215.636Z" fill="white"/>
<path d="M10.7978 116.739C7.38441 116.803 5.82454 113.419 7.82424 111.119C8.61869 110.207 9.54745 109.407 10.4497 108.594C12.7269 106.658 14.8265 104.457 17.2715 102.738C19.8575 101.179 22.8158 104.188 21.2757 106.761C18.8936 109.884 15.8506 112.509 13.1088 115.321C12.3599 116.038 11.3056 116.437 10.7978 116.739Z" fill="white"/>
</g>
<path d="M124.428 41.819L104.111 36.4705C97.4131 34.709 92.1838 29.4791 90.422 22.7856L85.0765 2.46806C84.7078 1.05964 83.4359 0.0803223 81.9821 0.0803223C80.5257 0.0803223 79.2537 1.05964 78.8829 2.46806L73.5374 22.7859C71.7759 29.4794 66.5463 34.709 59.848 36.4708L39.5312 41.8193C38.1228 42.1901 37.1436 43.4597 37.1436 44.9162C37.1436 46.3727 38.1228 47.642 39.5312 48.0134L59.848 53.3616C66.5463 55.121 71.7759 60.353 73.5374 67.0465L78.8829 87.3646C79.2537 88.773 80.526 89.7524 81.9821 89.7524C83.4359 89.7524 84.7078 88.773 85.0765 87.3646L90.4218 67.0465C92.1835 60.353 97.4128 55.121 104.111 53.3616L124.428 48.0134C125.836 47.6423 126.816 46.3727 126.816 44.9162C126.816 43.4597 125.836 42.1901 124.428 41.819Z" fill="white"/>
<path d="M158.551 79.3477L149.949 77.0832C147.113 76.3375 144.899 74.1233 144.154 71.2894L141.89 62.6874C141.734 62.0911 141.196 61.6765 140.58 61.6765C139.964 61.6765 139.425 62.0911 139.268 62.6874L137.005 71.2895C136.259 74.1234 134.045 76.3375 131.209 77.0834L122.608 79.3478C122.011 79.5048 121.597 80.0423 121.597 80.659C121.597 81.2756 122.011 81.813 122.608 81.9702L131.209 84.2345C134.045 84.9794 136.259 87.1945 137.005 90.0284L139.268 98.6306C139.425 99.2269 139.964 99.6415 140.58 99.6415C141.196 99.6415 141.734 99.2269 141.89 98.6306L144.153 90.0284C144.899 87.1945 147.113 84.9794 149.949 84.2345L158.551 81.9702C159.147 81.8131 159.562 81.2756 159.562 80.659C159.562 80.0423 159.147 79.5048 158.551 79.3477Z" fill="white"/>
<path fill-rule="evenodd" clip-rule="evenodd" d="M708.449 93.576V165H686.561V93.576H708.449ZM308.24 81.16C309.776 82.696 311.653 83.464 313.872 83.464C316.005 83.464 317.797 82.696 319.248 81.16C320.784 79.624 321.552 77.7467 321.552 75.528C321.552 73.3094 320.784 71.432 319.248 69.896C317.797 68.36 316.005 67.592 313.872 67.592C311.653 67.592 309.776 68.36 308.24 69.896C306.704 71.432 305.936 73.3094 305.936 75.528C305.936 77.7467 306.704 79.624 308.24 81.16ZM319.504 165V94.856H307.856V165H319.504ZM245.768 75.784V85.256H221.448V165H209.8V85.256H185.352V75.784H245.768ZM271.754 106.248C273.802 102.237 276.703 99.1227 280.458 96.904C284.298 94.6854 288.948 93.576 294.41 93.576V105.608H291.338C278.282 105.608 271.754 112.691 271.754 126.856V165H260.106V94.856H271.754V106.248ZM351.004 107.784C353.308 103.773 356.721 100.445 361.244 97.8C365.852 95.0694 371.185 93.704 377.244 93.704C383.473 93.704 389.105 95.1974 394.14 98.184C399.26 101.171 403.27 105.395 406.172 110.856C409.073 116.232 410.524 122.504 410.524 129.672C410.524 136.755 409.073 143.069 406.172 148.616C403.27 154.163 399.26 158.472 394.14 161.544C389.105 164.616 383.473 166.152 377.244 166.152C371.27 166.152 365.98 164.829 361.372 162.184C356.849 159.453 353.393 156.083 351.004 152.072V198.28H339.356V94.856H351.004V107.784ZM398.62 129.672C398.62 124.381 397.553 119.773 395.42 115.848C393.286 111.923 390.385 108.936 386.716 106.888C383.132 104.84 379.164 103.816 374.812 103.816C370.545 103.816 366.577 104.883 362.908 107.016C359.324 109.064 356.422 112.093 354.204 116.104C352.07 120.029 351.004 124.595 351.004 129.8C351.004 135.091 352.07 139.741 354.204 143.752C356.422 147.677 359.324 150.707 362.908 152.84C366.577 154.888 370.545 155.912 374.812 155.912C379.164 155.912 383.132 154.888 386.716 152.84C390.385 150.707 393.286 147.677 395.42 143.752C397.553 139.741 398.62 135.048 398.62 129.672ZM476.544 96.776C479.616 98.312 481.962 100.573 483.584 103.56H507.776C505.386 94.344 500.48 87.1334 493.056 81.928C485.717 76.7227 476.672 74.12 465.92 74.12C457.045 74.12 449.152 76.0827 442.24 80.008C435.328 83.848 429.909 89.2667 425.984 96.264C422.144 103.176 420.224 111.069 420.224 119.944C420.224 128.819 422.144 136.712 425.984 143.624C429.909 150.536 435.328 155.955 442.24 159.88C449.237 163.72 457.173 165.64 466.048 165.64C473.557 165.64 480.298 164.189 486.272 161.288C492.245 158.387 497.152 154.589 500.992 149.896C504.917 145.203 507.69 140.125 509.312 134.664V114.312H461.696V130.44H489.472C487.765 135.56 485.034 139.485 481.28 142.216C477.61 144.947 473.088 146.312 467.712 146.312C459.861 146.312 453.674 144.008 449.152 139.4C444.714 134.707 442.496 128.221 442.496 119.944C442.496 112.179 444.629 105.992 448.896 101.384C453.162 96.6907 458.837 94.344 465.92 94.344C470.016 94.344 473.557 95.1547 476.544 96.776ZM588.764 128.136C588.764 130.184 588.636 132.317 588.38 134.536H538.844C539.185 138.973 540.593 142.387 543.068 144.776C545.628 147.08 548.742 148.232 552.412 148.232C557.873 148.232 561.67 145.928 563.804 141.32H587.1C585.905 146.013 583.729 150.237 580.572 153.992C577.5 157.747 573.617 160.691 568.924 162.824C564.23 164.957 558.982 166.024 553.18 166.024C546.182 166.024 539.953 164.531 534.492 161.544C529.03 158.557 524.764 154.291 521.692 148.744C518.62 143.197 517.084 136.712 517.084 129.288C517.084 121.864 518.577 115.379 521.564 109.832C524.636 104.285 528.902 100.019 534.364 97.032C539.825 94.0454 546.097 92.552 553.18 92.552C560.092 92.552 566.236 94.0027 571.612 96.904C576.988 99.8054 581.169 103.944 584.156 109.32C587.228 114.696 588.764 120.968 588.764 128.136ZM566.364 122.376C566.364 118.621 565.084 115.635 562.524 113.416C559.964 111.197 556.764 110.088 552.924 110.088C549.254 110.088 546.14 111.155 543.58 113.288C541.105 115.421 539.569 118.451 538.972 122.376H566.364ZM663.799 101C658.849 95.5387 652.193 92.808 643.831 92.808C639.137 92.808 634.913 93.7467 631.159 95.624C627.404 97.416 624.417 99.8907 622.199 103.048V93.576H600.311V165H622.199V126.216C622.199 121.437 623.436 117.725 625.911 115.08C628.385 112.435 631.713 111.112 635.895 111.112C640.076 111.112 643.404 112.435 645.879 115.08C648.353 117.725 649.591 121.437 649.591 126.216V165H671.351V123.272C671.351 113.8 668.833 106.376 663.799 101ZM791.255 134.536C791.511 132.317 791.639 130.184 791.639 128.136C791.639 120.968 790.103 114.696 787.031 109.32C784.044 103.944 779.863 99.8054 774.487 96.904C769.111 94.0027 762.967 92.552 756.055 92.552C748.972 92.552 742.7 94.0454 737.239 97.032C731.777 100.019 727.511 104.285 724.439 109.832C721.452 115.379 719.959 121.864 719.959 129.288C719.959 136.712 721.495 143.197 724.567 148.744C727.639 154.291 731.905 158.557 737.367 161.544C742.828 164.531 749.057 166.024 756.055 166.024C761.857 166.024 767.105 164.957 771.799 162.824C776.492 160.691 780.375 157.747 783.447 153.992C786.604 150.237 788.78 146.013 789.975 141.32H766.679C764.545 145.928 760.748 148.232 755.287 148.232C751.617 148.232 748.503 147.08 745.943 144.776C743.468 142.387 742.06 138.973 741.719 134.536H791.255ZM765.399 113.416C767.959 115.635 769.239 118.621 769.239 122.376H741.847C742.444 118.451 743.98 115.421 746.455 113.288C749.015 111.155 752.129 110.088 755.799 110.088C759.639 110.088 762.839 111.197 765.399 113.416Z" fill="white"/>
<path d="M717.456 48.9966L704.315 45.5372C699.982 44.3979 696.6 41.0152 695.461 36.6858L692.003 23.5444C691.765 22.6334 690.942 22 690.002 22C689.06 22 688.237 22.6334 687.997 23.5444L684.54 36.686C683.4 41.0154 680.018 44.3979 675.685 45.5374L662.544 48.9968C661.633 49.2367 661 50.0579 661 50.9999C661 51.942 661.633 52.763 662.544 53.0032L675.685 56.4624C680.018 57.6004 683.4 60.9844 684.54 65.3139L687.997 78.4556C688.237 79.3666 689.06 80 690.002 80C690.942 80 691.765 79.3666 692.003 78.4556L695.46 65.3139C696.6 60.9844 699.982 57.6004 704.315 56.4624L717.456 53.0032C718.366 52.7631 719 51.942 719 50.9999C719 50.0579 718.367 49.2367 717.456 48.9966Z" fill="white"/>
<path d="M727.361 75.171L721.923 73.7395C720.131 73.2681 718.731 71.8684 718.26 70.0769L716.829 64.6391C716.73 64.2621 716.39 64 716.001 64C715.611 64 715.27 64.2621 715.171 64.6391L713.741 70.077C713.269 71.8684 711.869 73.2681 710.077 73.7396L704.639 75.1711C704.262 75.2703 704 75.6101 704 76C704 76.3898 704.262 76.7295 704.639 76.8289L710.077 78.2603C711.869 78.7312 713.269 80.1315 713.741 81.923L715.171 87.3609C715.27 87.7379 715.611 88 716.001 88C716.39 88 716.73 87.7379 716.829 87.3609L718.259 81.923C718.731 80.1315 720.131 78.7312 721.923 78.2603L727.361 76.8289C727.738 76.7296 728 76.3898 728 76C728 75.6101 727.738 75.2703 727.361 75.171Z" fill="white"/>
</svg>
