<svg width="817" height="231" viewBox="0 0 817 231" fill="none" xmlns="http://www.w3.org/2000/svg">
<mask id="mask0_2_246" style="mask-type:luminance" maskUnits="userSpaceOnUse" x="0" y="94" width="138" height="137">
<path d="M138 94.964H0.736328V230.668H138V94.964Z" fill="white"/>
</mask>
<g mask="url(#mask0_2_246)">
<path d="M137.907 104.303C137.2 108.862 135.439 113.261 132.381 116.708C126.384 123.811 119.718 130.28 112.512 136.151C101.229 145.711 89.5688 154.827 78.0335 164.078C70.2655 169.996 62.3319 175.695 54.4292 181.428C50.7382 184.811 47.1162 189.106 41.51 188.462C33.6734 186.373 36.3006 176.314 40.3503 171.785C46.4561 164.026 52.9694 156.591 59.6103 149.285C75.929 131.246 105.726 95.4705 131.319 95.0323C135.981 95.9243 138.129 99.689 137.907 104.303Z" fill="url(#paint0_linear_2_246)"/>
<path d="M126.206 194.506C126.294 198.133 124.792 200.897 122.011 203.08C112.973 212.252 94.418 173.248 90.0412 166.729C88.6059 163.841 88.4652 159.95 90.9869 157.749C95.9192 153.39 100.901 149.086 105.87 144.768C109.138 141.439 114.119 137.963 116.916 143.816C121.176 160.394 124.851 177.39 126.206 194.506Z" fill="url(#paint1_linear_2_246)"/>
<path d="M28.7432 102.547C29.0685 96.8333 36.3822 94.7812 41.1168 96.2459C55.8734 100.328 70.5863 104.9 84.753 110.688C87.6271 112.407 88.1523 115.602 85.8194 117.996C80.0766 123.851 74.0215 129.403 68.4104 135.389C66.4955 137.423 65.4441 137.739 63.1355 136.202C60.5364 134.473 57.9713 132.653 55.6004 130.628C49.2178 124.187 29.3646 110.814 28.7432 102.547Z" fill="url(#paint2_linear_2_246)"/>
<path d="M52.4551 220.901C52.5604 219.326 53.6911 217.984 55.0609 216.769C64.5712 208.572 73.768 200.048 82.6212 191.147C83.9938 189.827 85.4986 188.637 86.9975 187.457C90.5362 184.416 94.4506 188.843 91.059 191.992C80.9243 202.022 70.6381 211.901 60.5607 221.988C58.3811 224.791 52.4681 225.99 52.4551 220.901Z" fill="url(#paint3_linear_2_246)"/>
<path d="M38.3803 132.189C30.5621 142.931 20.1635 151.922 11.4153 162.016C9.71908 163.773 8.30509 165.977 6.07679 167.101C3.27454 168.739 -0.39258 165.388 1.2014 162.51C1.77868 161.348 2.70897 160.318 3.6333 159.377C11.7199 151.716 19.0779 143.345 26.8302 135.354C29.5681 133.006 36.5005 125.274 38.3803 132.189Z" fill="url(#paint4_linear_2_246)"/>
<path d="M38.1074 197.257C35.1466 202.186 29.713 205.872 25.7796 210.117C21.4002 213.899 17.8349 218.897 12.6777 221.632C11.5463 222.153 10.3514 222.056 9.40004 221.11C7.36167 219.092 9.46164 216.368 10.9561 214.766C17.8812 208.261 24.8632 201.817 31.8382 195.365C33.9058 192.822 38.0563 193.043 38.1074 197.257Z" fill="url(#paint5_linear_2_246)"/>
<path d="M68.8827 191.086C68.1181 205.529 52.2458 198.063 54.4823 186.986C55.2805 183.77 58.8549 182.276 61.1273 180.16C62.7564 178.891 64.5661 179.401 66.2361 179.986C68.4728 181.278 68.1283 188.281 68.8827 191.086Z" fill="url(#paint6_linear_2_246)"/>
<path d="M28.0498 160.453C30.6391 153.589 38.0937 154.043 43.5419 157.214C50.3859 160.953 42.248 166.814 39.271 170.257C38.8453 170.686 37.8956 170.951 37.307 170.806C31.8841 169.753 29.3888 165.612 28.0498 160.453Z" fill="url(#paint7_linear_2_246)"/>
<path d="M91.9539 230.593C87.7905 230.797 86.8347 226.691 89.3987 224.269C90.8301 222.948 92.261 221.626 93.6637 220.275C96.7056 217.345 99.7263 214.392 102.765 211.459C103.955 210.192 106.052 209.619 107.308 210.953C108.672 212.188 108.161 214.286 106.9 215.495C103.736 218.932 100.56 222.358 97.3926 225.792C95.9871 227.515 93.861 229.813 91.9539 230.593Z" fill="url(#paint8_linear_2_246)"/>
<path d="M11.5045 124.844C7.85468 124.913 6.18676 121.294 8.32498 118.835C9.17448 117.859 10.1676 117.004 11.1324 116.135C13.5673 114.065 15.8124 111.711 18.4267 109.874C21.1919 108.206 24.3552 111.424 22.7083 114.175C20.1612 117.514 16.9074 120.322 13.9756 123.328C13.1749 124.095 12.0476 124.521 11.5045 124.844Z" fill="url(#paint9_linear_2_246)"/>
</g>
<path d="M133.006 44.7342L111.282 39.0152C104.12 37.1316 98.528 31.5395 96.6443 24.3822L90.9284 2.65716C90.5342 1.15116 89.1741 0.104004 87.6197 0.104004C86.0623 0.104004 84.7023 1.15116 84.3058 2.65716L78.5899 24.3825C76.7064 31.5398 71.1145 37.1316 63.9521 39.0155L42.2278 44.7345C40.7219 45.131 39.6748 46.4886 39.6748 48.046C39.6748 49.6034 40.7219 50.9606 42.2278 51.3577L63.9521 57.0765C71.1145 58.9578 76.7064 64.5522 78.5899 71.7095L84.3058 93.4351C84.7023 94.9411 86.0626 95.9882 87.6197 95.9882C89.1741 95.9882 90.5342 94.9411 90.9284 93.4351L96.644 71.7095C98.5278 64.5522 104.119 58.9578 111.282 57.0765L133.006 51.3577C134.512 50.9609 135.559 49.6034 135.559 48.046C135.559 46.4886 134.512 45.131 133.006 44.7342Z" fill="url(#paint10_linear_2_246)"/>
<path d="M169.493 84.8629L160.295 82.4416C157.263 81.6441 154.896 79.2766 154.098 76.2463L151.678 67.0485C151.511 66.4109 150.935 65.9675 150.277 65.9675C149.618 65.9675 149.042 66.4109 148.874 67.0485L146.454 76.2465C145.657 79.2767 143.289 81.6441 140.257 82.4417L131.059 84.863C130.422 85.0309 129.979 85.6057 129.979 86.265C129.979 86.9244 130.422 87.499 131.059 87.6671L140.257 90.0883C143.289 90.8848 145.657 93.2534 146.454 96.2836L148.874 105.482C149.042 106.119 149.618 106.563 150.277 106.563C150.935 106.563 151.511 106.119 151.678 105.482L154.098 96.2836C154.895 93.2534 157.263 90.8848 160.295 90.0883L169.493 87.6671C170.13 87.4991 170.574 86.9244 170.574 86.265C170.574 85.6057 170.13 85.0309 169.493 84.8629Z" fill="url(#paint11_linear_2_246)"/>
<path fill-rule="evenodd" clip-rule="evenodd" d="M733.449 95.576V167H711.561V95.576H733.449ZM333.24 83.16C334.776 84.696 336.653 85.4641 338.872 85.4641C341.005 85.4641 342.797 84.696 344.248 83.16C345.784 81.624 346.552 79.7467 346.552 77.528C346.552 75.3094 345.784 73.4321 344.248 71.896C342.797 70.36 341.005 69.592 338.872 69.592C336.653 69.592 334.776 70.36 333.24 71.896C331.704 73.4321 330.936 75.3094 330.936 77.528C330.936 79.7467 331.704 81.624 333.24 83.16ZM344.504 167V96.856H332.856V167H344.504ZM270.768 77.784V87.2561H246.448V167H234.8V87.2561H210.352V77.784H270.768ZM296.754 108.248C298.802 104.237 301.703 101.123 305.458 98.9041C309.298 96.6854 313.948 95.576 319.41 95.576V107.608H316.338C303.282 107.608 296.754 114.691 296.754 128.856V167H285.106V96.856H296.754V108.248ZM376.004 109.784C378.308 105.773 381.721 102.445 386.244 99.8C390.852 97.0694 396.185 95.704 402.244 95.704C408.473 95.704 414.105 97.1974 419.14 100.184C424.26 103.171 428.27 107.395 431.172 112.856C434.073 118.232 435.524 124.504 435.524 131.672C435.524 138.755 434.073 145.069 431.172 150.616C428.27 156.163 424.26 160.472 419.14 163.544C414.105 166.616 408.473 168.152 402.244 168.152C396.27 168.152 390.98 166.829 386.372 164.184C381.849 161.453 378.393 158.083 376.004 154.072V200.28H364.356V96.856H376.004V109.784ZM423.62 131.672C423.62 126.381 422.553 121.773 420.42 117.848C418.286 113.923 415.385 110.936 411.716 108.888C408.132 106.84 404.164 105.816 399.812 105.816C395.545 105.816 391.577 106.883 387.908 109.016C384.324 111.064 381.422 114.093 379.204 118.104C377.07 122.029 376.004 126.595 376.004 131.8C376.004 137.091 377.07 141.741 379.204 145.752C381.422 149.677 384.324 152.707 387.908 154.84C391.577 156.888 395.545 157.912 399.812 157.912C404.164 157.912 408.132 156.888 411.716 154.84C415.385 152.707 418.286 149.677 420.42 145.752C422.553 141.741 423.62 137.048 423.62 131.672ZM501.544 98.776C504.616 100.312 506.962 102.573 508.584 105.56H532.776C530.386 96.3441 525.48 89.1334 518.056 83.928C510.717 78.7227 501.672 76.12 490.92 76.12C482.045 76.12 474.152 78.0827 467.24 82.008C460.328 85.8481 454.909 91.2667 450.984 98.2641C447.144 105.176 445.224 113.069 445.224 121.944C445.224 130.819 447.144 138.712 450.984 145.624C454.909 152.536 460.328 157.955 467.24 161.88C474.237 165.72 482.173 167.64 491.048 167.64C498.557 167.64 505.298 166.189 511.272 163.288C517.245 160.387 522.152 156.589 525.992 151.896C529.917 147.203 532.69 142.125 534.312 136.664V116.312H486.696V132.44H514.472C512.765 137.56 510.034 141.485 506.28 144.216C502.61 146.947 498.088 148.312 492.712 148.312C484.861 148.312 478.674 146.008 474.152 141.4C469.714 136.707 467.496 130.221 467.496 121.944C467.496 114.179 469.629 107.992 473.896 103.384C478.162 98.6907 483.837 96.344 490.92 96.344C495.016 96.344 498.557 97.1547 501.544 98.776ZM613.764 130.136C613.764 132.184 613.636 134.317 613.38 136.536H563.844C564.185 140.973 565.593 144.387 568.068 146.776C570.628 149.08 573.742 150.232 577.412 150.232C582.873 150.232 586.67 147.928 588.804 143.32H612.1C610.905 148.013 608.729 152.237 605.572 155.992C602.5 159.747 598.617 162.691 593.924 164.824C589.23 166.957 583.982 168.024 578.18 168.024C571.182 168.024 564.953 166.531 559.492 163.544C554.03 160.557 549.764 156.291 546.692 150.744C543.62 145.197 542.084 138.712 542.084 131.288C542.084 123.864 543.577 117.379 546.564 111.832C549.636 106.285 553.902 102.019 559.364 99.0321C564.825 96.0454 571.097 94.552 578.18 94.552C585.092 94.552 591.236 96.0027 596.612 98.9041C601.988 101.805 606.169 105.944 609.156 111.32C612.228 116.696 613.764 122.968 613.764 130.136ZM591.364 124.376C591.364 120.621 590.084 117.635 587.524 115.416C584.964 113.197 581.764 112.088 577.924 112.088C574.254 112.088 571.14 113.155 568.58 115.288C566.105 117.421 564.569 120.451 563.972 124.376H591.364ZM688.799 103C683.849 97.5387 677.193 94.8081 668.831 94.8081C664.137 94.8081 659.913 95.7467 656.159 97.624C652.404 99.416 649.417 101.891 647.199 105.048V95.576H625.311V167H647.199V128.216C647.199 123.437 648.436 119.725 650.911 117.08C653.385 114.435 656.713 113.112 660.895 113.112C665.076 113.112 668.404 114.435 670.879 117.08C673.353 119.725 674.591 123.437 674.591 128.216V167H696.351V125.272C696.351 115.8 693.833 108.376 688.799 103ZM816.255 136.536C816.511 134.317 816.639 132.184 816.639 130.136C816.639 122.968 815.103 116.696 812.031 111.32C809.044 105.944 804.863 101.805 799.487 98.9041C794.111 96.0027 787.967 94.552 781.055 94.552C773.972 94.552 767.7 96.0454 762.239 99.0321C756.777 102.019 752.511 106.285 749.439 111.832C746.452 117.379 744.959 123.864 744.959 131.288C744.959 138.712 746.495 145.197 749.567 150.744C752.639 156.291 756.905 160.557 762.367 163.544C767.828 166.531 774.057 168.024 781.055 168.024C786.857 168.024 792.105 166.957 796.799 164.824C801.492 162.691 805.375 159.747 808.447 155.992C811.604 152.237 813.78 148.013 814.975 143.32H791.679C789.545 147.928 785.748 150.232 780.287 150.232C776.617 150.232 773.503 149.08 770.943 146.776C768.468 144.387 767.06 140.973 766.719 136.536H816.255ZM790.399 115.416C792.959 117.635 794.239 120.621 794.239 124.376H766.847C767.444 120.451 768.98 117.421 771.455 115.288C774.015 113.155 777.129 112.088 780.799 112.088C784.639 112.088 787.839 113.197 790.399 115.416Z" fill="white"/>
<path d="M742.456 50.9967L729.315 47.5372C724.982 46.3979 721.6 43.0152 720.461 38.6858L717.003 25.5444C716.765 24.6334 715.942 24 715.002 24C714.06 24 713.237 24.6334 712.997 25.5444L709.54 38.686C708.4 43.0154 705.018 46.3979 700.685 47.5374L687.544 50.9968C686.633 51.2367 686 52.0579 686 52.9999C686 53.942 686.633 54.763 687.544 55.0032L700.685 58.4624C705.018 59.6004 708.4 62.9845 709.54 67.3139L712.997 80.4556C713.237 81.3666 714.06 82 715.002 82C715.942 82 716.765 81.3666 717.003 80.4556L720.46 67.3139C721.6 62.9845 724.982 59.6004 729.315 58.4624L742.456 55.0032C743.366 54.7631 744 53.942 744 52.9999C744 52.0579 743.367 51.2367 742.456 50.9967Z" fill="url(#paint12_linear_2_246)"/>
<path d="M752.361 77.171L746.923 75.7395C745.131 75.2681 743.731 73.8684 743.26 72.0769L741.829 66.6391C741.73 66.2621 741.39 66 741.001 66C740.611 66 740.27 66.2621 740.171 66.6391L738.741 72.077C738.269 73.8684 736.869 75.2681 735.077 75.7396L729.639 77.1711C729.262 77.2703 729 77.6101 729 78C729 78.3898 729.262 78.7295 729.639 78.8289L735.077 80.2603C736.869 80.7312 738.269 82.1315 738.741 83.923L740.171 89.3609C740.27 89.7379 740.611 90 741.001 90C741.39 90 741.73 89.7379 741.829 89.3609L743.259 83.923C743.731 82.1315 745.131 80.7312 746.923 80.2603L752.361 78.8289C752.738 78.7296 753 78.3898 753 78C753 77.6101 752.738 77.2703 752.361 77.171Z" fill="url(#paint13_linear_2_246)"/>
<defs>
<linearGradient id="paint0_linear_2_246" x1="35.9547" y1="187.513" x2="99.3671" y2="94.087" gradientUnits="userSpaceOnUse">
<stop stop-color="#1140A4"/>
<stop offset="0.83" stop-color="#9933CC"/>
</linearGradient>
<linearGradient id="paint1_linear_2_246" x1="88.8309" y1="203.778" x2="134.151" y2="167.912" gradientUnits="userSpaceOnUse">
<stop stop-color="#1140A4"/>
<stop offset="0.83" stop-color="#9933CC"/>
</linearGradient>
<linearGradient id="paint2_linear_2_246" x1="28.4539" y1="136.719" x2="53.1935" y2="89.2035" gradientUnits="userSpaceOnUse">
<stop stop-color="#1140A4"/>
<stop offset="0.83" stop-color="#9933CC"/>
</linearGradient>
<linearGradient id="paint3_linear_2_246" x1="52.2579" y1="223.993" x2="78.3042" y2="186.829" gradientUnits="userSpaceOnUse">
<stop stop-color="#1140A4"/>
<stop offset="0.83" stop-color="#9933CC"/>
</linearGradient>
<linearGradient id="paint4_linear_2_246" x1="0.628824" y1="167.119" x2="27.3409" y2="131.414" gradientUnits="userSpaceOnUse">
<stop stop-color="#1140A4"/>
<stop offset="0.83" stop-color="#9933CC"/>
</linearGradient>
<linearGradient id="paint5_linear_2_246" x1="8.40866" y1="221.64" x2="27.8019" y2="194.08" gradientUnits="userSpaceOnUse">
<stop stop-color="#1140A4"/>
<stop offset="0.83" stop-color="#9933CC"/>
</linearGradient>
<linearGradient id="paint6_linear_2_246" x1="54.1944" y1="198.86" x2="68.5727" y2="184.379" gradientUnits="userSpaceOnUse">
<stop stop-color="#1140A4"/>
<stop offset="0.83" stop-color="#9933CC"/>
</linearGradient>
<linearGradient id="paint7_linear_2_246" x1="27.9601" y1="170.674" x2="38.4842" y2="154.305" gradientUnits="userSpaceOnUse">
<stop stop-color="#1140A4"/>
<stop offset="0.83" stop-color="#9933CC"/>
</linearGradient>
<linearGradient id="paint8_linear_2_246" x1="87.8829" y1="230.379" x2="102.165" y2="211.251" gradientUnits="userSpaceOnUse">
<stop stop-color="#1140A4"/>
<stop offset="0.83" stop-color="#9933CC"/>
</linearGradient>
<linearGradient id="paint9_linear_2_246" x1="7.30092" y1="124.678" x2="17.9807" y2="109.847" gradientUnits="userSpaceOnUse">
<stop stop-color="#1140A4"/>
<stop offset="0.83" stop-color="#9933CC"/>
</linearGradient>
<linearGradient id="paint10_linear_2_246" x1="39.201" y1="94.9488" x2="106.032" y2="4.22213" gradientUnits="userSpaceOnUse">
<stop stop-color="#1140A4"/>
<stop offset="0.83" stop-color="#9933CC"/>
</linearGradient>
<linearGradient id="paint11_linear_2_246" x1="129.778" y1="106.123" x2="158.072" y2="67.711" gradientUnits="userSpaceOnUse">
<stop stop-color="#1140A4"/>
<stop offset="0.83" stop-color="#9933CC"/>
</linearGradient>
<linearGradient id="paint12_linear_2_246" x1="685.713" y1="81.3712" x2="726.139" y2="26.491" gradientUnits="userSpaceOnUse">
<stop stop-color="#1140A4"/>
<stop offset="0.83" stop-color="#9933CC"/>
</linearGradient>
<linearGradient id="paint13_linear_2_246" x1="728.881" y1="89.7398" x2="745.609" y2="67.0308" gradientUnits="userSpaceOnUse">
<stop stop-color="#1140A4"/>
<stop offset="0.83" stop-color="#9933CC"/>
</linearGradient>
</defs>
</svg>
